<?xml version="1.0" standalone="no"?>
<!DOCTYPE svg PUBLIC "-//W3C//DTD SVG 20010904//EN"
 "http://www.w3.org/TR/2001/REC-SVG-20010904/DTD/svg10.dtd">
<svg version="1.0" xmlns="http://www.w3.org/2000/svg"
 width="1200.000000pt" height="1200.000000pt" viewBox="0 0 1200.000000 1200.000000"
 preserveAspectRatio="xMidYMid meet">
<metadata>
Created by potrace 1.11, written by Peter Selinger 2001-2013
</metadata>
<g transform="translate(0.000000,1200.000000) scale(0.100000,-0.100000)"
fill="#000000" stroke="none">
<path d="M5758 8844 c-2 -2 -35 -6 -73 -8 -39 -3 -83 -8 -100 -10 -16 -2 -57
-7 -90 -11 -32 -3 -62 -8 -65 -10 -4 -2 -29 -7 -56 -11 -27 -3 -58 -8 -69 -11
-11 -2 -29 -6 -40 -8 -11 -3 -29 -7 -40 -9 -11 -2 -42 -10 -70 -16 -27 -6 -57
-13 -66 -15 -22 -5 -101 -26 -119 -33 -8 -3 -19 -6 -25 -7 -29 -7 -203 -67
-217 -75 -10 -6 -22 -10 -28 -10 -5 0 -35 -12 -67 -26 -32 -14 -67 -29 -78
-34 -97 -42 -248 -118 -321 -162 -49 -29 -106 -62 -127 -73 -20 -11 -37 -23
-37 -27 0 -5 -4 -8 -9 -8 -11 0 -135 -82 -139 -92 -2 -5 -8 -8 -13 -8 -6 0
-20 -9 -32 -21 -12 -12 -38 -31 -57 -44 -19 -12 -45 -32 -58 -43 -13 -11 -42
-35 -64 -54 -108 -86 -300 -275 -403 -393 -33 -38 -67 -76 -75 -85 -8 -9 -24
-28 -35 -44 -11 -15 -32 -42 -47 -59 -15 -18 -28 -35 -28 -39 0 -4 -6 -13 -13
-20 -26 -28 -67 -87 -67 -97 0 -6 -4 -11 -8 -11 -5 0 -15 -12 -23 -27 -8 -16
-17 -32 -22 -38 -27 -36 -78 -120 -132 -220 -12 -22 -39 -70 -59 -107 -20 -38
-35 -68 -32 -68 3 0 -8 -26 -25 -57 -17 -32 -31 -60 -31 -63 0 -3 -5 -16 -11
-30 -6 -14 -11 -27 -12 -30 -1 -3 -7 -18 -14 -35 -18 -47 -23 -60 -19 -61 2 0
-2 -7 -8 -15 -9 -11 -43 -101 -50 -131 -1 -5 -3 -10 -4 -13 -1 -3 -4 -9 -5
-15 -1 -5 -4 -12 -5 -15 -1 -3 -3 -8 -4 -12 -1 -5 -10 -35 -20 -68 -10 -33
-19 -64 -20 -70 -1 -5 -5 -16 -9 -22 -5 -7 -6 -17 -2 -22 3 -5 0 -13 -6 -16
-5 -4 -8 -13 -5 -20 2 -7 2 -16 -2 -20 -4 -4 -7 -10 -7 -13 -1 -8 -13 -67 -21
-102 -3 -14 -7 -34 -9 -45 -2 -11 -6 -33 -9 -50 -3 -16 -8 -47 -11 -69 -4 -21
-8 -48 -11 -60 -2 -11 -6 -48 -9 -81 -4 -33 -9 -73 -12 -90 -3 -16 -8 -571
-10 -1232 l-4 -1203 3601 0 3601 0 -4 1203 c-2 661 -7 1218 -10 1237 -5 34
-13 92 -23 176 -3 23 -7 53 -10 65 -3 13 -7 38 -9 54 -3 17 -7 41 -10 55 -4
14 -8 36 -11 50 -3 14 -9 41 -14 60 -5 19 -12 53 -16 75 -3 22 -9 45 -12 50
-4 6 -8 17 -10 25 -3 16 -3 15 -22 80 -8 25 -14 48 -16 53 -1 4 -3 9 -4 12 -1
3 -4 10 -5 15 -1 6 -3 11 -5 13 -1 1 -3 10 -5 20 -2 10 -7 26 -11 35 -4 9 -8
19 -9 22 -1 3 -4 12 -7 20 -7 18 -15 42 -17 52 -2 8 -27 68 -58 138 -36 81
-175 358 -198 395 -14 22 -28 48 -31 58 -4 9 -10 17 -15 17 -5 0 -9 5 -9 10 0
10 -68 119 -81 130 -3 3 -29 39 -57 80 -28 41 -61 87 -74 102 -13 15 -34 42
-48 59 -14 18 -34 43 -45 55 -11 13 -45 51 -75 85 -101 115 -268 277 -370 359
-30 25 -57 47 -60 50 -3 3 -21 17 -40 30 -19 13 -37 27 -40 30 -3 3 -21 17
-40 30 -19 14 -44 32 -54 42 -11 10 -24 18 -28 18 -5 0 -18 9 -30 20 -12 11
-34 26 -50 32 -15 7 -28 16 -28 20 0 5 -7 8 -15 8 -8 0 -15 4 -15 8 0 5 -21
20 -47 33 -27 13 -50 26 -53 29 -3 3 -18 12 -35 20 -16 8 -32 17 -35 20 -3 3
-27 17 -55 30 -27 14 -61 33 -74 42 -13 10 -27 15 -32 12 -5 -3 -9 0 -9 5 0 6
-5 11 -10 11 -6 0 -43 15 -83 33 -40 19 -110 48 -157 66 -47 18 -94 37 -105
41 -22 10 -112 40 -135 45 -8 2 -62 17 -120 34 -58 16 -116 32 -130 35 -38 8
-72 15 -105 23 -16 3 -37 7 -45 9 -8 1 -26 5 -40 8 -14 3 -45 9 -70 12 -25 3
-54 8 -65 10 -11 2 -42 6 -70 9 -27 3 -72 8 -100 11 -56 6 -572 14 -577 8z"/>
</g>
</svg>
